<svg xmlns="http://www.w3.org/2000/svg" width="237.088" height="55.162" viewBox="0 0 237.088 55.162">
  <path id="txt_officialclub" d="M15.129,11.669a32.742,32.742,0,0,1-5.26-.427A15.614,15.614,0,0,1,5.1,9.7,9.018,9.018,0,0,1,1.651,6.54,9.548,9.548,0,0,1,.336,1.28,21.433,21.433,0,0,1,1.421-4.933a31.9,31.9,0,0,1,3.255-7.1A32.21,32.21,0,0,1,10.1-18.707a25.856,25.856,0,0,1,7.561-4.964,24.072,24.072,0,0,1,9.7-1.874q7.89,0,11.506,2.531t3.616,7.857a24.313,24.313,0,0,1-2.137,9.994A28.776,28.776,0,0,1,34.426,3.45a28.561,28.561,0,0,1-8.712,6.016A25.657,25.657,0,0,1,15.129,11.669Zm-.526-.986a19.446,19.446,0,0,0,7.66-1.545A24,24,0,0,0,28.9,4.929,29.451,29.451,0,0,0,34.1-1.152a30.683,30.683,0,0,0,3.419-7.167,23.961,23.961,0,0,0,1.216-7.43,8.338,8.338,0,0,0-2.564-6.443Q33.6-24.559,27.49-24.559a15.264,15.264,0,0,0-6.936,1.742,26.331,26.331,0,0,0-6.443,4.635A39.16,39.16,0,0,0,8.785-11.8,33.684,33.684,0,0,0,5.136-4.768,19.185,19.185,0,0,0,3.821,1.872,8.489,8.489,0,0,0,6.286,8.348Q8.752,10.682,14.6,10.682ZM25.912,25.739a10.063,10.063,0,0,1-4.307-.822,4.287,4.287,0,0,1-2.334-2.466,2.6,2.6,0,0,1-.1-.394,2.832,2.832,0,0,1-.033-.46,6.294,6.294,0,0,1,.46-2.2q.46-1.216.986-2.6.2-.394.46-.394.46,0,.263.657a4.914,4.914,0,0,0-.46,2.1,4.069,4.069,0,0,0,1.972,3.55,7.876,7.876,0,0,0,4.471,1.315A9.085,9.085,0,0,0,29.3,23.8a8.513,8.513,0,0,0,1.94-.69A14.411,14.411,0,0,0,36.3,18.9a42.487,42.487,0,0,0,3.485-5.457,68.19,68.19,0,0,0,3.978-9.238Q45.439-.626,47.346-5.36q-1.446,0-2.038.066t-.92.131l-.131-.066q.131-.723,1.282-1.282a4.533,4.533,0,0,1,1.808-.559h.789q.723-1.775,1.94-4.208t2.5-4.832q1.282-2.4,2.268-4.044a18.337,18.337,0,0,1,6.378-6.608,15.117,15.117,0,0,1,7.627-2.071,2.8,2.8,0,0,1,1.545.493,1.516,1.516,0,0,1,.69,1.479l-.131,1.446a13.014,13.014,0,0,1,9.2-3.879A2.8,2.8,0,0,1,81.7-28.8a1.516,1.516,0,0,1,.69,1.479l-.2,2.367q0,.2-.329.2-.131,0-.131-.066a2.617,2.617,0,0,0-1.216-1.841,4.329,4.329,0,0,0-2.4-.657,6.335,6.335,0,0,0-2.1.394,9.5,9.5,0,0,0-3.518,2.137,20.981,20.981,0,0,0-3.583,4.832Q68.057-18.378,67-16.11t-2.071,4.7q-1.019,2.433-1.94,4.471,2.038,0,4.274-.066t4.241-.23q2.005-.164,3.386-.394a5.225,5.225,0,0,0,1.644-.427.568.568,0,0,1,.394-.2q.131,0,.164.23a.67.67,0,0,1-.164.493,17.068,17.068,0,0,0-1.381,2.235q-.986,1.775-2.071,3.912T71.476,2.464q-.92,1.775-1.578,3.419A7.482,7.482,0,0,0,69.24,8.25a.814.814,0,0,0,.92.92,4,4,0,0,0,2.2-1.052,23.8,23.8,0,0,0,2.729-2.531q1.381-1.479,2.433-2.729l1.446-1.644a.642.642,0,0,1,.131.46,2.3,2.3,0,0,1-.329.888,7.527,7.527,0,0,1-.526.756q-1.381,1.709-3.024,3.518a16.794,16.794,0,0,1-3.616,3.024,7.993,7.993,0,0,1-4.274,1.216,2.04,2.04,0,0,1-1.085-.263,1.064,1.064,0,0,1-.427-.986,6.062,6.062,0,0,1,.493-2.17q.493-1.249,1.118-2.5t.953-2.038q.329-.657.888-1.874t1.151-2.531q.592-1.315,1.085-2.4t.69-1.479q.066-.131-.394-.263a11.036,11.036,0,0,0-2.235-.131q-1.118,0-2.893.066t-4.339.2q-1.381,3.485-2.7,6.772T56.879,7.855a59.155,59.155,0,0,1-3.09,5.852,42.041,42.041,0,0,1-4.208,5.852,20.754,20.754,0,0,1-5.293,4.471,12.48,12.48,0,0,1-6.41,1.709q-3.879,0-5.654-1.775A13.18,13.18,0,0,1,29.2,25.278,11.681,11.681,0,0,1,25.912,25.739ZM56.945-19.956q-.855,1.578-1.874,3.846t-2.038,4.635Q52.014-9.108,51.159-7.07H60.1q.723-1.775,1.94-4.208t2.5-4.832q1.282-2.4,2.268-4.044a30.266,30.266,0,0,1,3.55-4.734,2.615,2.615,0,0,0-1.414-1.874,5.43,5.43,0,0,0-2.729-.69,6.505,6.505,0,0,0-2.5.46,10.319,10.319,0,0,0-3.32,2.235A23.16,23.16,0,0,0,56.945-19.956Zm21.828,5.72a1.463,1.463,0,0,1-1.315-.592,1.326,1.326,0,0,1-.263-.855,1.981,1.981,0,0,1,.986-1.709,2.793,2.793,0,0,1,1.315-.394,1.536,1.536,0,0,1,1.381.592,1.326,1.326,0,0,1,.263.855,1.96,1.96,0,0,1-1.052,1.709A2.319,2.319,0,0,1,78.774-14.236ZM39.193,24.029a8.842,8.842,0,0,0,4.011-.92A14.411,14.411,0,0,0,48.266,18.9a42.487,42.487,0,0,0,3.485-5.457,68.189,68.189,0,0,0,3.978-9.238Q57.405-.626,59.312-5.36H50.5Q49.121-1.876,47.74,1.478T44.913,7.855q-1.118,2.367-2.663,5.1A45.83,45.83,0,0,1,38.8,18.178a23.6,23.6,0,0,1-4.274,4.339A7.112,7.112,0,0,0,39.193,24.029Zm41.29-12.624a4.99,4.99,0,0,1-3.419-.92,3.093,3.093,0,0,1-.986-2.367,9.138,9.138,0,0,1,1.249-4.241A37.285,37.285,0,0,1,79.694-.035a22.109,22.109,0,0,1,2.531-2.86,17.375,17.375,0,0,1,3.057-2.334,20.4,20.4,0,0,1,2.86-1.414A8.236,8.236,0,0,1,91.2-7.4a2.665,2.665,0,0,1,2.1.69A2.488,2.488,0,0,1,93.9-5.031a5.268,5.268,0,0,1-.263,1.611,14.16,14.16,0,0,1-.592,1.545,1.132,1.132,0,0,1-.592.559q-.394.164-.394-.1a2.445,2.445,0,0,1,.066-.592,2.444,2.444,0,0,0,.066-.592,5.853,5.853,0,0,0-.559-2.466,1.793,1.793,0,0,0-1.677-1.216,5.076,5.076,0,0,0-2.564.822A8.471,8.471,0,0,0,85.48-4.045,25.64,25.64,0,0,0,82.16.36a21.968,21.968,0,0,0-2.334,5,7.7,7.7,0,0,0-.46,2.367A1.884,1.884,0,0,0,79.957,9.3a2.285,2.285,0,0,0,1.446.46,5.617,5.617,0,0,0,1.414-.2q.756-.2,1.611-.46a15.4,15.4,0,0,0,3.978-2.071,29.394,29.394,0,0,0,3.649-3.024,22.907,22.907,0,0,0,2.5-2.794.536.536,0,0,1,.132.394,1.492,1.492,0,0,1-.263.756q-.263.427-.394.69a24.874,24.874,0,0,1-3.616,3.781,23.66,23.66,0,0,1-4.832,3.255A11.228,11.228,0,0,1,80.483,11.406Zm26.562-25.642a1.463,1.463,0,0,1-1.315-.592,1.326,1.326,0,0,1-.263-.855,1.981,1.981,0,0,1,.986-1.709,2.793,2.793,0,0,1,1.315-.394,1.536,1.536,0,0,1,1.381.592,1.326,1.326,0,0,1,.263.855,1.96,1.96,0,0,1-1.052,1.709A2.319,2.319,0,0,1,107.045-14.236ZM95.605,11.077a2.04,2.04,0,0,1-1.085-.263,1.064,1.064,0,0,1-.427-.986,6.062,6.062,0,0,1,.493-2.17q.493-1.249,1.118-2.5t.953-2.038q.46-.92,1.151-2.4t1.315-2.827q.625-1.348.888-1.874-.92.986-2.2,2.466t-2.4,2.86Q94.29,2.727,93.7,3.516q-.2.263-.329.263t-.131-.329a1.665,1.665,0,0,1,.329-.986q1.249-1.578,2.794-3.55t2.794-3.649q1.249-1.677,1.578-2.2.723-.131,2.137-.394a4.248,4.248,0,0,0,1.94-.723.568.568,0,0,1,.395-.2q.132,0,.164.23a.67.67,0,0,1-.164.493,17.069,17.069,0,0,0-1.381,2.235q-.986,1.775-2.071,3.912T99.747,2.464q-.92,1.775-1.578,3.419a7.483,7.483,0,0,0-.657,2.367.814.814,0,0,0,.92.92,4,4,0,0,0,2.2-1.052,23.8,23.8,0,0,0,2.729-2.531q1.381-1.479,2.433-2.729.329-.394.822-.953t.625-.69a.642.642,0,0,1,.132.46,2.3,2.3,0,0,1-.329.888,7.525,7.525,0,0,1-.526.756q-1.381,1.709-3.024,3.518a16.794,16.794,0,0,1-3.616,3.024A7.993,7.993,0,0,1,95.605,11.077Zm19.33,0a2.22,2.22,0,0,1-1.118-.263,1.036,1.036,0,0,1-.46-.986,5.9,5.9,0,0,1,.46-2.1,24.585,24.585,0,0,1,1.052-2.334q.592-1.151,1.052-1.874-2.3,2.433-4.8,4.6a22.182,22.182,0,0,1-2.761,1.972,6.093,6.093,0,0,1-3.222.92.993.993,0,0,1-.92-.427,1.906,1.906,0,0,1-.263-1.019,1.128,1.128,0,0,1,.066-.46,17.645,17.645,0,0,1,1.644-5.326,27.71,27.71,0,0,1,3.222-5.194,22.128,22.128,0,0,1,3.879-3.945A7.932,7.932,0,0,1,117.7-7.07h7.561q.329,0,.329.263,0,.526-.592.526a1.782,1.782,0,0,0-1.315.822,15.151,15.151,0,0,0-.986,1.348q-.46.723-1.446,2.433t-2.005,3.715q-1.019,2.005-1.742,3.715a7.434,7.434,0,0,0-.723,2.5.814.814,0,0,0,.92.92,3.929,3.929,0,0,0,2.235-.92,19.489,19.489,0,0,0,2.531-2.268q1.282-1.348,2.367-2.7t1.742-2.137q.394.394-.033,1.085a9.791,9.791,0,0,1-.756,1.085,45.792,45.792,0,0,1-3.024,3.518,17.846,17.846,0,0,1-3.715,3.024A7.832,7.832,0,0,1,114.935,11.077Zm-7.1-2.3a4.124,4.124,0,0,0,2.2-1.151,32.492,32.492,0,0,0,3.057-2.893,41.609,41.609,0,0,0,3.09-3.682,40.771,40.771,0,0,0,2.4-3.55,5.528,5.528,0,0,0,.953-2.466,1.064,1.064,0,0,0-.427-.986,2.04,2.04,0,0,0-1.085-.263,4.351,4.351,0,0,0-2.268.756,10.859,10.859,0,0,0-1.94,1.479,14.409,14.409,0,0,0-1.874,2.268q-1.085,1.545-2.137,3.386a33.481,33.481,0,0,0-1.775,3.55,7.555,7.555,0,0,0-.723,2.761Q107.308,8.776,107.834,8.776Zm21.828,2.235a3.209,3.209,0,0,1-2.7-.953,3.75,3.75,0,0,1-.723-2.334,10.876,10.876,0,0,1,.822-3.945q.822-2.1,1.348-3.287-.855.92-1.644,1.775t-1.118,1.249q-.2.263-.329.263t-.132-.329a1.665,1.665,0,0,1,.329-.986q.92-1.183,2.1-2.5t2.3-2.761q1.315-2.433,2.926-5.687T136.2-15.19q1.742-3.452,3.419-6.378a49.151,49.151,0,0,1,2.992-4.7,10.771,10.771,0,0,0,2.137-1.183q1.019-.723,2.038-1.348a4.028,4.028,0,0,1,2.137-.625,1.4,1.4,0,0,1,1.085.394,2.091,2.091,0,0,1,.493.92,2.645,2.645,0,0,1,.066.723,9.022,9.022,0,0,1-1.019,3.682,35.23,35.23,0,0,1-2.367,4.241q-1.348,2.071-2.334,3.386A68.662,68.662,0,0,1,139.459-9.4q-2.761,2.992-4.964,5t-3.189,2.926q-.46.855-1.085,2.268a24.9,24.9,0,0,0-1.085,2.959,10.067,10.067,0,0,0-.46,2.86A3.2,3.2,0,0,0,129.2,8.48a2.008,2.008,0,0,0,1.775.756h.394a1.932,1.932,0,0,0,.46-.066,5.6,5.6,0,0,0,2.433-1.249,26.6,26.6,0,0,0,2.63-2.433q1.315-1.381,2.367-2.63.46-.526.855-1.019t.526-.69q.46.46-.033,1.151l-.822,1.151q-.46.592-1.315,1.611t-1.972,2.2a21.2,21.2,0,0,1-3.09,2.5A6.61,6.61,0,0,1,129.663,11.011Zm2.761-15.122q2.038-1.709,5.161-4.9a53.163,53.163,0,0,0,6.147-7.725q.329-.526,1.085-1.775t1.578-2.86a32.65,32.65,0,0,0,1.414-3.156,7.657,7.657,0,0,0,.592-2.663q0-1.052-.592-1.052-.723,0-1.907,1.249a26.946,26.946,0,0,0-3.123,4.241q-1.742,2.794-3.649,6.213t-3.649,6.706Q133.739-6.544,132.424-4.111Zm20.842,15.517a4.99,4.99,0,0,1-3.419-.92,3.092,3.092,0,0,1-.986-2.367,9.138,9.138,0,0,1,1.249-4.241,37.283,37.283,0,0,1,2.367-3.912,22.108,22.108,0,0,1,2.531-2.86,17.374,17.374,0,0,1,3.057-2.334,20.4,20.4,0,0,1,2.86-1.414,8.236,8.236,0,0,1,3.057-.756,2.665,2.665,0,0,1,2.1.69,2.488,2.488,0,0,1,.592,1.677,5.268,5.268,0,0,1-.263,1.611,14.163,14.163,0,0,1-.592,1.545,1.132,1.132,0,0,1-.592.559q-.395.164-.395-.1a2.445,2.445,0,0,1,.066-.592,2.443,2.443,0,0,0,.066-.592,5.853,5.853,0,0,0-.559-2.466,1.793,1.793,0,0,0-1.677-1.216,5.076,5.076,0,0,0-2.564.822,8.471,8.471,0,0,0-1.907,1.414A25.641,25.641,0,0,0,154.943.36a21.967,21.967,0,0,0-2.334,5,7.7,7.7,0,0,0-.46,2.367A1.884,1.884,0,0,0,152.74,9.3a2.285,2.285,0,0,0,1.446.46,5.617,5.617,0,0,0,1.414-.2q.756-.2,1.611-.46a15.4,15.4,0,0,0,3.978-2.071,29.394,29.394,0,0,0,3.649-3.024,22.907,22.907,0,0,0,2.5-2.794.536.536,0,0,1,.132.394,1.493,1.493,0,0,1-.263.756q-.263.427-.394.69a24.874,24.874,0,0,1-3.616,3.781,23.66,23.66,0,0,1-4.833,3.255A11.228,11.228,0,0,1,153.266,11.406Zm17.226-.394a3.209,3.209,0,0,1-2.7-.953,3.75,3.75,0,0,1-.723-2.334,10.876,10.876,0,0,1,.822-3.945q.822-2.1,1.348-3.287-.855.92-1.644,1.775t-1.118,1.249q-.2.263-.329.263t-.132-.329a1.665,1.665,0,0,1,.329-.986q.92-1.183,2.1-2.5t2.3-2.761q1.315-2.433,2.926-5.687t3.353-6.706q1.742-3.452,3.419-6.378a49.151,49.151,0,0,1,2.992-4.7,10.771,10.771,0,0,0,2.137-1.183q1.019-.723,2.038-1.348a4.028,4.028,0,0,1,2.137-.625,1.4,1.4,0,0,1,1.085.394,2.091,2.091,0,0,1,.493.92,2.647,2.647,0,0,1,.066.723,9.022,9.022,0,0,1-1.019,3.682,35.232,35.232,0,0,1-2.367,4.241q-1.348,2.071-2.334,3.386A68.664,68.664,0,0,1,180.289-9.4q-2.761,2.992-4.964,5t-3.189,2.926q-.46.855-1.085,2.268a24.9,24.9,0,0,0-1.085,2.959,10.068,10.068,0,0,0-.46,2.86,3.2,3.2,0,0,0,.526,1.874,2.008,2.008,0,0,0,1.775.756h.394a1.932,1.932,0,0,0,.46-.066,5.6,5.6,0,0,0,2.433-1.249,26.6,26.6,0,0,0,2.63-2.433q1.315-1.381,2.367-2.63.46-.526.855-1.019t.526-.69q.46.46-.033,1.151l-.822,1.151q-.46.592-1.315,1.611t-1.972,2.2a21.2,21.2,0,0,1-3.09,2.5A6.61,6.61,0,0,1,170.492,11.011Zm2.761-15.122q2.038-1.709,5.161-4.9a53.161,53.161,0,0,0,6.147-7.725q.329-.526,1.085-1.775t1.578-2.86a32.654,32.654,0,0,0,1.414-3.156,7.657,7.657,0,0,0,.592-2.663q0-1.052-.592-1.052-.723,0-1.907,1.249a26.946,26.946,0,0,0-3.123,4.241q-1.742,2.794-3.649,6.213t-3.649,6.706Q174.569-6.544,173.254-4.111ZM183.9,11.077a2.22,2.22,0,0,1-1.118-.263,1.036,1.036,0,0,1-.46-.986,6.063,6.063,0,0,1,.493-2.17q.493-1.249,1.085-2.5t.986-2.038Q185.68,1.609,186.4.1t1.249-2.564a3.811,3.811,0,0,0,.526-1.315q0-.526-.756,0T186.009-2.73A41.163,41.163,0,0,0,182.984.524q-1.578,1.874-2.433,2.992-.2.263-.329.263t-.132-.329a1.665,1.665,0,0,1,.329-.986q.92-1.315,2.17-2.893t2.564-3.024q1.249-1.315,2.564-2.564a4.672,4.672,0,0,1,3.353-1.249q1.381,0,1.381,1.052a3.936,3.936,0,0,1-.789,2.1q-.46.723-1.446,2.433t-2.005,3.715q-1.019,2.005-1.742,3.715a7.434,7.434,0,0,0-.723,2.5.814.814,0,0,0,.92.92,3.279,3.279,0,0,0,1.775-.756,21.522,21.522,0,0,0,2.17-1.808A31.775,31.775,0,0,0,194.326,2.3a47.985,47.985,0,0,0,2.893-4.5q1.216-2.17,1.94-3.55.132-.263.3-.625a.707.707,0,0,1,.559-.427,13.451,13.451,0,0,1,1.709-.066,5.641,5.641,0,0,0,2.433-.526h.131a.174.174,0,0,1,.2.2q0,.526-.855.789a4.43,4.43,0,0,0-1.808,1.578,21.768,21.768,0,0,0-2.005,3.189A40.741,40.741,0,0,0,198.041,2.2a26.493,26.493,0,0,0-1.183,3.616,5.6,5.6,0,0,0-.2,2.433q.263.92.92.92a4.892,4.892,0,0,0,2.4-1.052,30.3,30.3,0,0,0,3.189-2.531,28.252,28.252,0,0,0,2.7-2.729q.46-.526.855-1.052a7.95,7.95,0,0,1,.526-.657.706.706,0,0,1,.131.23.808.808,0,0,1,.066.3,2.3,2.3,0,0,1-.329.888,4.107,4.107,0,0,1-.592.756,39.311,39.311,0,0,1-2.992,3.452,19.588,19.588,0,0,1-3.748,3.057,7.682,7.682,0,0,1-4.109,1.249,4.038,4.038,0,0,1-1.479-.329,1.384,1.384,0,0,1-.822-1.446,8.414,8.414,0,0,1,.46-2.334q.46-1.479,1.019-2.959a18.8,18.8,0,0,1,.953-2.2q-.855,1.249-2.071,2.794a25.347,25.347,0,0,1-2.466,2.729,18.355,18.355,0,0,1-3.518,2.663A7.586,7.586,0,0,1,183.9,11.077Zm24.919.394a8.6,8.6,0,0,1-2.038-.3A1.4,1.4,0,0,1,205.6,9.7a3.378,3.378,0,0,1,.2-1.052q.2-.592.395-1.052.657-1.709,1.381-3.485T209.086.491q-.855.986-1.611,1.808t-1.085,1.216q-.2.263-.329.263t-.132-.329a1.665,1.665,0,0,1,.329-.986q.92-1.183,2.1-2.5t2.3-2.761a109.285,109.285,0,0,1,6.18-11.21,53.408,53.408,0,0,1,7.693-9.632q1.315-1.249,2.959-2.564a19.087,19.087,0,0,1,3.518-2.235,8.372,8.372,0,0,1,3.715-.92,3.287,3.287,0,0,1,1.808.526,1.959,1.959,0,0,1,.888,1.644v1.907q0,.263-.394.263-.2,0-.2-.131a1.382,1.382,0,0,0-.92-1.414,5,5,0,0,0-1.841-.362,11.714,11.714,0,0,0-6.509,1.874,19.926,19.926,0,0,0-5.128,4.865,42.377,42.377,0,0,0-4.011,6.575q-1.775,3.583-3.189,7.035T212.571-.429V-.3q0,.131.066.131a9.631,9.631,0,0,0,1.085-1.019q1.019-1.019,2.564-2.4a21.085,21.085,0,0,1,3.255-2.4A6.254,6.254,0,0,1,222.7-7a.876.876,0,0,1,.92.493,2.9,2.9,0,0,1,.2,1.085v.592a17.941,17.941,0,0,1-1.677,5.26,26.367,26.367,0,0,1-3.419,5.358,18.82,18.82,0,0,1-4.6,4.109A9.859,9.859,0,0,1,208.823,11.471Zm1.052-1.118a4.119,4.119,0,0,0,2.268-.822,12.975,12.975,0,0,0,1.874-1.479,15.555,15.555,0,0,0,1.907-2.268,37.623,37.623,0,0,0,2.17-3.386,33.481,33.481,0,0,0,1.775-3.55,7.555,7.555,0,0,0,.723-2.761,1.3,1.3,0,0,0-.132-.592.471.471,0,0,0-.46-.263,2.867,2.867,0,0,0-1.545.723A25.718,25.718,0,0,0,216.417-2.3q-1.085,1.019-1.972,1.972t-1.282,1.414q-.723.789-1.841,2.3a31.785,31.785,0,0,0-2.005,3.057,5.519,5.519,0,0,0-.888,2.6Q208.429,10.354,209.875,10.354Z" transform="translate(-0.336 29.424)" fill="#fff"/>
</svg>
